<?xml version="1.0" standalone="no"?>
<!DOCTYPE svg PUBLIC "-//W3C//DTD SVG 20010904//EN"
 "http://www.w3.org/TR/2001/REC-SVG-20010904/DTD/svg10.dtd">
<svg version="1.0" xmlns="http://www.w3.org/2000/svg"
 width="512.000000pt" height="512.000000pt" viewBox="0 0 512.000000 512.000000"
 preserveAspectRatio="xMidYMid meet"  >
<metadata>
Created by potrace 1.16, written by Peter Selinger 2001-2019
</metadata>
<g transform="translate(0.000000,512.000000) scale(0.100000,-0.100000)"
fill="#000000" stroke="none">
<path d="M1755 5041 c-72 -12 -156 -38 -186 -59 -46 -30 -111 -95 -182 -179
-94 -114 -199 -203 -276 -237 -46 -21 -102 -34 -200 -46 -250 -33 -367 -101
-408 -237 -20 -68 -19 -61 -32 -278 -14 -218 -29 -255 -152 -360 -111 -96
-213 -206 -239 -260 -47 -98 -41 -175 32 -405 40 -125 43 -143 43 -246 l0
-110 -57 -86 c-83 -125 -84 -127 -70 -211 19 -107 71 -191 233 -378 54 -62 66
-84 151 -294 32 -78 98 -208 115 -227 9 -10 13 -18 9 -18 -10 0 124 -205 181
-276 18 -23 33 -43 33 -46 0 -31 365 -385 495 -480 5 -4 24 -18 40 -32 38 -29
216 -139 315 -193 98 -54 303 -143 410 -178 47 -15 91 -32 98 -38 6 -5 12 -7
12 -4 0 3 42 -6 93 -19 118 -31 291 -63 387 -72 103 -9 416 -9 524 1 136 12
331 55 481 105 44 14 82 27 85 27 46 11 299 138 393 197 339 214 676 579 843
911 38 75 104 229 104 242 0 3 -130 -86 -165 -113 -86 -68 -345 -213 -471
-264 -35 -14 -140 -43 -226 -62 -34 -8 -18 10 30 33 70 34 207 126 287 192
191 158 327 330 440 558 31 62 58 120 60 129 2 9 13 42 25 72 12 30 24 64 26
74 2 10 8 33 13 50 36 113 56 383 39 526 -15 121 -13 122 -85 -22 -120 -240
-241 -414 -387 -558 -72 -70 -82 -72 -37 -7 105 154 184 333 225 507 31 135
37 192 37 337 0 191 -33 338 -114 503 -36 74 -137 217 -165 234 -5 3 1 -20 14
-52 61 -151 78 -267 70 -487 -4 -145 -21 -269 -46 -350 -5 -16 -11 -46 -13
-65 -2 -20 -11 -49 -19 -65 -9 -17 -25 -59 -36 -95 -11 -36 -30 -85 -43 -110
-13 -25 -33 -65 -43 -90 -26 -61 -151 -273 -170 -289 -9 -8 -16 -19 -16 -25 0
-6 -13 -24 -28 -41 -15 -16 -43 -50 -62 -75 -90 -117 -230 -255 -351 -347
l-89 -68 57 -9 c72 -11 249 5 358 34 93 24 280 112 347 164 26 20 50 36 54 36
11 0 -151 -154 -226 -215 -87 -70 -270 -195 -287 -195 -7 0 -13 -4 -13 -8 0
-8 -153 -87 -265 -137 -176 -79 -437 -139 -625 -144 -23 -1 -21 -4 25 -47 169
-155 407 -255 639 -269 75 -4 119 -15 63 -15 -34 0 -30 0 -68 -10 -102 -30
-494 -33 -629 -6 -100 21 -203 50 -257 73 -21 9 -42 18 -48 19 -47 10 -288
142 -406 221 -180 123 -389 300 -502 428 l-70 79 7 -62 c11 -94 33 -169 77
-261 52 -109 113 -195 218 -303 46 -49 80 -88 75 -88 -5 0 -45 20 -89 43 -419
225 -680 569 -761 1002 -23 119 -25 413 -5 510 7 33 14 69 15 80 7 54 41 176
63 225 13 30 24 56 24 57 -1 9 80 138 115 183 71 92 253 260 282 260 6 0 12 3
14 8 3 7 57 44 119 80 20 12 39 19 42 15 4 -3 7 -2 7 3 0 6 26 21 58 33 31 13
71 29 87 36 58 26 176 57 193 52 9 -3 78 -32 152 -65 308 -134 616 -234 899
-292 168 -33 195 -37 367 -46 287 -16 519 58 605 194 40 63 51 109 48 205 -2
85 -18 147 -65 245 -27 57 -101 177 -125 202 -8 8 -26 31 -40 50 -34 45 -238
245 -309 303 -91 75 -270 198 -325 224 -16 8 -57 30 -90 49 -183 103 -400 195
-515 219 -19 4 -60 15 -90 25 -49 17 -220 48 -260 48 -8 0 -55 4 -105 10 -49
5 -112 8 -138 7 -46 -3 -53 1 -122 56 -82 66 -171 114 -252 135 -67 17 -231
26 -298 15z"/>
</g>
</svg>
